<svg xmlns="http://www.w3.org/2000/svg" viewBox="0 0 100 92"><defs><style>.a{fill:#0d83dd;}</style></defs><title>97percent</title><path class="a" d="M43.84,4A4,4,0,0,1,45.4,1.9,7.31,7.31,0,0,1,48.16.72,15.35,15.35,0,0,1,51.47.38a14.77,14.77,0,0,1,3.4.39,10.87,10.87,0,0,1,2.86,1l.63.4.66.43.6.45a8.91,8.91,0,0,1,.79.66c.26.25.55.53.86.85a1,1,0,0,1,.3,1.1,3.72,3.72,0,0,1-.92,1.49,21.68,21.68,0,0,1-1.59,1.59c-.55.51-1.22,1.11-2,1.81s-1.41,1.29-1.86,1.74a36.92,36.92,0,0,0-2.62,3c-1,1.2-1.78,2.21-2.42,3a5.11,5.11,0,0,1-1.31,1.33,4.19,4.19,0,0,1-2.32-.6,6.91,6.91,0,0,1-2.26-1.39c-.2-.22.28-1.08,1.41-2.57s2.33-2.93,3.57-4.3L51.1,8.72l-.3,0L50,8.6c-.38,0-.76-.11-1.12-.18s-.8-.18-1.28-.31a10.73,10.73,0,0,1-1.32-.44,7.86,7.86,0,0,1-1.18-.62,4.1,4.1,0,0,1-.92-.8,2.33,2.33,0,0,1-.48-1A2.37,2.37,0,0,1,43.84,4Zm5.68,1.65c.23.21.77.25,1.6.12a17.34,17.34,0,0,0,2-.38,10.93,10.93,0,0,0,1.45-.49c.36-.17.66-.33.91-.48A2.81,2.81,0,0,0,56,4l.14-.15a6.29,6.29,0,0,0-.8-.37,4.6,4.6,0,0,0-.77-.2,4.49,4.49,0,0,0-.73-.06,5.53,5.53,0,0,0-.71,0c-.23,0-.47.06-.7.1l-.69.12-.26.06a4,4,0,0,0-1.55,1C49.43,5,49.29,5.38,49.52,5.62Z"/><path class="a" d="M62.14,7A1.61,1.61,0,0,1,63,6.51a2.61,2.61,0,0,1,1.12,0,12.41,12.41,0,0,1,1.24.28l1.48.42a12.44,12.44,0,0,0,1.52.38,15.29,15.29,0,0,0,2.09.2c.84,0,1.58.05,2.24.05a14,14,0,0,1,2.2.2A8.61,8.61,0,0,1,77,8.63a3.66,3.66,0,0,1,.75.41,1.19,1.19,0,0,1,.4.42,1.13,1.13,0,0,1,.12.4.83.83,0,0,1-.15.43,5.36,5.36,0,0,1-.33.43,4.38,4.38,0,0,1-.51.44c-.22.18-.42.32-.59.45l-.66.49-.67.49c-1.37,1.14-3.35,2.89-5.92,5.27a45.89,45.89,0,0,0-4.89,4.93,13.67,13.67,0,0,1-1.23,1.54,1.09,1.09,0,0,1-1,.31,9.84,9.84,0,0,1-1.63-.51,4,4,0,0,1-1-.47,1,1,0,0,1-.44-.56,1.23,1.23,0,0,1,0-.63,2.44,2.44,0,0,1,.4-.8,10.77,10.77,0,0,1,.68-.91c.23-.28.55-.66,1-1.12l0,0q.89-1,3.11-3.36c1.49-1.54,2.82-2.9,4-4.09l1.8-1.77-1-.05a19.43,19.43,0,0,1-2-.29l-2.39-.42a8.93,8.93,0,0,1-1.8-.77,2.7,2.7,0,0,1-1-.92A.7.7,0,0,1,62.14,7Z"/><path class="a" d="M80.37,26.2a90.55,90.55,0,0,0,8.18-9.47c0-.05.09-.09.11-.14l.18-.5s.06-.07.07-.1c.38-.55,1.1-.55,2-.21a.76.76,0,0,1,.52,1.11,5.81,5.81,0,0,1-1,1.48,123.68,123.68,0,0,1-11.2,11.54C78,31,76.54,32.2,75.91,32s-.61-.37-.55-.94c0,0,.11-.14.2-.23a3.84,3.84,0,0,0,.55-.43C77.63,29.05,79,27.56,80.37,26.2Zm-1.5-4.39A3.5,3.5,0,0,1,77,17.1a3.91,3.91,0,0,1,5.13-2.54c1.92.7,2.33,3.35,1.76,4.9A3.84,3.84,0,0,1,78.87,21.81ZM81,16.45a1.62,1.62,0,0,0-1.86,1c-.52,1.45,0,2.33.81,2.62a1.89,1.89,0,0,0,2.2-1.29A1.78,1.78,0,0,0,81,16.45ZM84.3,29a3.92,3.92,0,0,1,5.21-2.43c1.79.65,2.53,2.95,1.77,5-.94,2.6-2.8,2.88-4.75,2.32A3.69,3.69,0,0,1,84.3,29Zm4.21-.68a1.82,1.82,0,0,0-2,1.36c-.69,1.89.33,2.35,1.12,2.64A2.06,2.06,0,0,0,89.54,31,2.12,2.12,0,0,0,88.51,28.3Z"/><path class="a" d="M16.89,25c.54-1.49,1.46-2.84,3.24-2.19,1.26.46,1.34,1.77.95,2.83-.49,1.33-1.71,2.69-3.19,2.16A2.1,2.1,0,0,1,16.89,25Zm3.37.26c.2-.54.14-1.23-.4-1.43-1.08-.39-1.59.69-1.87,1.45s-.19,1.33.35,1.53C19.25,27.1,20,26.05,20.26,25.22Z"/><path class="a" d="M24.12,26.38c-.53,1.75-1,3.27-1,3.39-.1.28-.27.29-.5.21-.41-.15-.38-.47-.32-.91s.37-1.68.73-2.95c-.18-.05-.33-.11-.45-.15-.5-.18-.84-.44-.61-1.07.14-.4.24-.39.39-.34l.17.09c.18.1.43.26.8.43l.16-.42c.9-2.48,2-4.39,3.49-3.84a2,2,0,0,1,1.14.95.67.67,0,0,1,0,.57c-.1.29-.36.53-.6.44s-.17-.14-.26-.32a1,1,0,0,0-.51-.57c-.56-.21-1.27.55-1.81,2l-.27.73c-.09.27-.2.55-.28.83.35.08.84.18,1.28.24s.82,0,.94.09.09.07.05.17-.27.42-.38.44A5.69,5.69,0,0,1,24.12,26.38Z"/><path class="a" d="M29.69,27.93l0-.06c.4-1.11,1.84-1.2,2.9-.89a.65.65,0,0,1,.43.88c-.16.43-2-.41-2.27.42-.17.46.92,1.52,1.17,1.83a1.2,1.2,0,0,1,.26,1.2c-.4,1.1-2.41,1-3.26.66-.36-.13-.77-.37-.63-.75.06-.15.16-.26.29-.21s.21.11.32.15c.55.2,1.82.36,2.06-.31S29.28,29.23,29.69,27.93Z"/><path class="a" d="M33.87,30c.36-1,.93-1.87,1.51-1.65.38.13.7.49.58.8a1.66,1.66,0,0,1-.25.36,6.07,6.07,0,0,0-.83,1.31c-.1.26-.56,1.73-.25,1.84.11.05.5-.28.76-.55.6-.62,1-1.13,1.56-1.61s1-.73,1.51-.56.33,1.73.25,2.12-.08.5-.13.67-.12.57,0,.6.31-.11.56-.34c.47-.44,1.4-1.27,1.93-1.65a1,1,0,0,1,.88-.22.62.62,0,0,1,.42.85c-.26.73-.31.82-.34.91a3.82,3.82,0,0,0-.29,2.46c.06.16.22.34.16.51a.46.46,0,0,1-.65.27,1.21,1.21,0,0,1-.45-.32c-.59-.64-.35-1.85-.09-2.71.1-.32.14-.58,0-.61s-.3.13-.44.26c-.55.48-1,1-1.5,1.45s-.7.69-1,.57a.73.73,0,0,1-.43-.36,4.57,4.57,0,0,1,.1-1.8c.15-.78.19-1.25,0-1.32s-.91.52-1.38,1c-.29.3-.51.5-.68.66-.53.51-1.09,1-1.49.82a1.3,1.3,0,0,1-.48-.36c-.18-.23-.19-.74-.06-1.52A9,9,0,0,1,33.87,30Z"/><path class="a" d="M47.53,33.49a1,1,0,0,1,0,.45.52.52,0,0,1-.56.3s-.08-.11-.12-.29-.1-.29-.41-.41c-.79-.29-1.54.49-1.88,1.42-.15.41-.39,1.17.29,1.42s1.89-.93,2.38-1.54.8-.81,1-.74.6.22.43.7a16.74,16.74,0,0,0-.56,1.79,5.25,5.25,0,0,0-.15,1.34.71.71,0,0,1,0,.27.45.45,0,0,1-.55.22c-.5-.18-.58-1.32-.14-2.69-.86.89-2,1.77-3,1.44s-1.25-1.52-.85-2.6c.51-1.4,1.63-2.64,3.21-2.07A1.25,1.25,0,0,1,47.53,33.49Z"/><path class="a" d="M50.63,39.49c-.09.21-.38.22-.64.12a.81.81,0,0,1-.48-.68,13.24,13.24,0,0,1,1.05-4.66c.32-.87.73-1.83,1-2.34.3-.7.71-1.55,1.3-1.33.35.12.65.43.58.66a.35.35,0,0,1-.07.15,30.48,30.48,0,0,0-1.9,4.05c-.08.22-.17.45-.23.68a7.69,7.69,0,0,0-.56,3A.67.67,0,0,1,50.63,39.49Z"/><path class="a" d="M53.63,40.46c-.08.21-.46.22-.72.13-1-.38.13-3.75.65-5.19.36-1,.58-1.47.84-2,.41-.83.94-1.67,1.44-1.49.3.11.52.41.47.62a.35.35,0,0,1-.07.15,29.86,29.86,0,0,0-1.66,3.54L54.3,37l0,.13a9.4,9.4,0,0,0-.62,2.9A.74.74,0,0,1,53.63,40.46Z"/><path class="a" d="M60.08,38.43a3.66,3.66,0,0,1,2,0l.06,0a1.62,1.62,0,0,1,1,2.34,3.2,3.2,0,0,1-3.68,2c-.25-.09-.26-.24-.18-.45a.24.24,0,0,1,0-.1A3,3,0,0,0,62,40.42a.82.82,0,0,0-.46-1.11,3.05,3.05,0,0,0-1.77,0c-.37,1.07-.8,2.74-1,3.24-.05.14-.14.22-.36.13-.92-.33.21-3.44.79-5,.42-1.16.71-2,1.38-3.43.13-.28.33-.69.75-.54a.79.79,0,0,1,.36,1.1c-.3.81-.85,1.75-1.17,2.56C60.36,37.68,60.22,38.05,60.08,38.43Z"/><path class="a" d="M64.5,44.66c-1.25-.46-.89-2.2-.62-3.15,0-.16.16-.46.22-.65.24-.66.57-1.31,1.31-1.24a1.52,1.52,0,0,1,.32.06c.21.08.22.29.11.59-.25.69-.62,1.22-.85,1.84s-.3,1.36.23,1.56,1.58-.84,2.61-2.11c.35-.69.56-.69.8-.6s.7.25.51.78l-.14.38a14.84,14.84,0,0,0-.55,1.74,4.88,4.88,0,0,0-.12,1.45,1.84,1.84,0,0,1,0,.34.47.47,0,0,1-.59.25.26.26,0,0,1-.16-.12,3.33,3.33,0,0,1,0-2.94C66.23,44.45,65.34,45,64.5,44.66Z"/><path class="a" d="M70.64,42.84l0-.07c.4-1.1,1.83-1.19,2.9-.88a.64.64,0,0,1,.42.87c-.15.44-2-.4-2.27.43-.17.46.93,1.51,1.17,1.82a1.21,1.21,0,0,1,.26,1.2c-.4,1.11-2.41,1-3.26.66-.36-.13-.76-.36-.62-.75,0-.14.15-.25.28-.2s.21.1.32.14c.55.2,1.82.37,2.06-.3S70.23,44.14,70.64,42.84Z"/><path class="a" d="M75.43,47.74a1.33,1.33,0,0,0,.07.45.22.22,0,0,1,0,.16.41.41,0,0,1-.58.28.91.91,0,0,1-.36-.26c-.56-.55.06-3,.47-4.08.24-.66.59-1.25,1.06-1.08s.6.31.55.59a1.57,1.57,0,0,1-.08.29c0,.13-.14.26-.2.4s-.14.3-.28.67A9,9,0,0,0,75.43,47.74Zm2.44-6.13a.78.78,0,0,1-.9.3.64.64,0,0,1-.31-.84c.1-.25.44-.62.79-.49a.78.78,0,0,1,.47.88Z"/><path class="a" d="M80.8,47.06c-.49-.18-1.71,1-2.09,1.4l-.17.19a3.14,3.14,0,0,0-.38.62.38.38,0,0,1-.46.25l-.21-.09a1,1,0,0,1-.3-.27c-.38-.5.14-2.16.37-2.79.52-1.41,1.11-2.28,1.68-2.07a.82.82,0,0,1,.5.93.59.59,0,0,1-.12.16l-.54.67a6,6,0,0,0-.6,1.24,3.46,3.46,0,0,0-.2.66c.72-.77,2.34-2.5,3.57-2.06.34.13.55.46.53,1.08a14.45,14.45,0,0,1-.29,2,2.92,2.92,0,0,0,0,1.15c.06.16.22.34.15.51a.45.45,0,0,1-.63.26,1.3,1.3,0,0,1-.45-.31A2.71,2.71,0,0,1,81,48.4C81.16,47.67,81.08,47.16,80.8,47.06Z"/><path class="a" d="M87.21,51.52c.19-.11.27-.23.44-.16s.19.32.12.5c-.24.67-1.7.93-2.71.57-1.58-.58-1.76-2.18-1.28-3.48.54-1.49,1.87-2.44,3.37-1.89A1.26,1.26,0,0,1,88,48.63a2.49,2.49,0,0,1-.75,1,4.75,4.75,0,0,1-2.51.83,1.38,1.38,0,0,0,.87,1.32A1.84,1.84,0,0,0,87.21,51.52ZM86.64,48c-.9-.32-1.49.76-1.71,1.37a3.25,3.25,0,0,0-.13.46,2.21,2.21,0,0,0,2.14-1.24A.47.47,0,0,0,86.64,48Z"/><path class="a" d="M89.39,49.66l0-.06c.4-1.11,1.84-1.2,2.9-.89a.66.66,0,0,1,.43.88c-.16.43-2-.41-2.27.42-.17.46.92,1.51,1.17,1.83A1.2,1.2,0,0,1,91.9,53c-.4,1.1-2.41,1-3.27.66-.35-.13-.76-.37-.62-.75.06-.15.16-.26.29-.21s.21.11.32.14c.55.21,1.82.37,2.06-.3S89,51,89.39,49.66Z"/><path class="a" d="M92.79,54.28c.18.07.37.2.65.3.6.22,1.3.34,1.51-.22s-1.67-1.94-1.2-3.22l0-.07c.48-1.11,2-1,2.85-.74l.15.06c.36.16.45.31.36.57l-.11.23c-.28.47-1.81-.48-2.12.38-.16.42.26.93.56,1.43.45.69.91,1.19.68,1.82l0,.07c-.37.89-1.93.82-2.76.56l-.13-.05a4.6,4.6,0,0,1-.64-.28.68.68,0,0,1-.3-.76c0-.12.16-.2.37-.12Z"/><path class="a" d="M6.72,36.16C7.26,34.67,8.19,33.32,10,34c1.26.46,1.33,1.77.95,2.84-.49,1.32-1.71,2.68-3.19,2.15A2.11,2.11,0,0,1,6.72,36.16Zm3.38.26c.2-.54.14-1.23-.4-1.43-1.08-.39-1.59.69-1.87,1.45s-.19,1.33.35,1.53C9.09,38.3,9.8,37.25,10.1,36.42Z"/><path class="a" d="M13.21,35.44c.21.07.68.43.55.78a2,2,0,0,1-.18.33,4.71,4.71,0,0,0-.41.76c-.17.46-.62,2.29-.1,2.49a.64.64,0,0,0,.33,0,3,3,0,0,0,1.07-.69,2.34,2.34,0,0,1,.13-.66c.15-.41.42-.73.88-.57s.32.36.21.65-.13.28-.18.41a1.3,1.3,0,0,0,0,.21c-.06.32.19,1.53.51,1.65.5.18,1.15-.9,1.45-1.71s.08-1.33.24-1.78A.38.38,0,0,1,18.2,37a1,1,0,0,1,.55,1.39c-.42,1.16-1.6,4-3.28,3.37-.68-.25-.88-1.85-.88-2-.41.41-1.35,1.24-2.06,1-1.46-.53-.61-3.67-.35-4.4C12.38,35.8,12.63,35.22,13.21,35.44Z"/><path class="a" d="M22.66,40.8c-.49-.18-1.71,1-2.09,1.4l-.17.19A2.41,2.41,0,0,0,20,43a.39.39,0,0,1-.46.25c-.08,0-.14-.07-.21-.09a1,1,0,0,1-.3-.27c-.38-.5.14-2.16.37-2.79.52-1.41,1.12-2.28,1.68-2.07a.81.81,0,0,1,.5.92.49.49,0,0,1-.12.17l-.54.67a6,6,0,0,0-.6,1.24,3.25,3.25,0,0,0-.2.66c.71-.77,2.34-2.5,3.57-2.06.34.13.55.46.53,1.08a14.45,14.45,0,0,1-.29,2A2.93,2.93,0,0,0,24,43.89c.06.16.22.33.15.51a.45.45,0,0,1-.63.26,1.21,1.21,0,0,1-.45-.32,2.68,2.68,0,0,1-.2-2.2C23,41.4,22.94,40.9,22.66,40.8Z"/><path class="a" d="M29.07,45.26c.19-.11.27-.23.44-.16s.19.32.12.5c-.24.67-1.7.93-2.71.56-1.58-.57-1.76-2.17-1.28-3.48A2.63,2.63,0,0,1,29,40.8a1.26,1.26,0,0,1,.83,1.57,2.49,2.49,0,0,1-.75,1,4.75,4.75,0,0,1-2.51.83,1.37,1.37,0,0,0,.87,1.31A1.8,1.8,0,0,0,29.07,45.26Zm-.57-3.55c-.9-.32-1.49.76-1.71,1.37a4.45,4.45,0,0,0-.13.45A2.2,2.2,0,0,0,28.8,42.3.47.47,0,0,0,28.5,41.71Z"/><path class="a" d="M32.28,45.07a4.55,4.55,0,0,0-.53,1l-.13.37c-.3.83-.62,1-1.1.78-.33-.12-.24-.42-.13-.72a13.71,13.71,0,0,0,.8-2.84,7.11,7.11,0,0,1,.18-.9.47.47,0,0,1,.11-.19.56.56,0,0,1,.57-.13c.47.17.5.45.31,1.42a7.73,7.73,0,0,1,.79-.59A2.09,2.09,0,0,1,35,43a.71.71,0,0,1,.5.85c-.1.29-.38.6-.65.5l-.09-.14c0-.1-.14-.17-.35-.25C33.57,43.62,32.73,44.45,32.28,45.07Z"/><path class="a" d="M34.58,48c.18.06.38.19.65.29.61.23,1.31.35,1.51-.22s-1.66-1.93-1.2-3.21l0-.08c.48-1.11,2-1,2.85-.74l.16.06c.36.16.45.31.35.58a1.12,1.12,0,0,1-.11.22c-.27.47-1.81-.47-2.12.38-.15.42.26.93.57,1.43.45.7.91,1.19.68,1.83l0,.06c-.37.9-1.92.82-2.75.57L35,49.12a4.3,4.3,0,0,1-.65-.28.71.71,0,0,1-.3-.77c0-.12.16-.19.37-.12Z"/><path class="a" d="M45.71,48.2c-.78-.28-1.59.45-2,1a3.07,3.07,0,0,0-.43.8c0,.08,0,.14-.07.22l-.16.44c-.26.72-.55.9-.94.76l-.12,0c-.32-.16-.22-.45-.11-.75a14.26,14.26,0,0,0,.77-3c0-.28.1-.55.17-.93,0,0,.07-.12.1-.18a.58.58,0,0,1,.53-.11c.63.23.45,1.06.34,1.53.39-.33.62-.48.74-.57a2,2,0,0,1,1.7-.23l.13.05a.82.82,0,0,1,.5.92c-.1.27-.33.58-.61.48,0,0-.1-.14-.1-.16a.66.66,0,0,0-.35-.28Z"/><path class="a" d="M49.62,52.74c.19-.11.27-.23.44-.17s.19.32.12.51c-.25.67-1.7.93-2.71.56-1.58-.57-1.76-2.17-1.28-3.48a2.65,2.65,0,0,1,3.37-1.89,1.28,1.28,0,0,1,.83,1.58,2.49,2.49,0,0,1-.75,1,4.75,4.75,0,0,1-2.51.83A1.37,1.37,0,0,0,48,53,1.83,1.83,0,0,0,49.62,52.74Zm-.57-3.55c-.9-.32-1.49.76-1.71,1.36-.06.16-.1.32-.14.46a2.21,2.21,0,0,0,2.15-1.23A.47.47,0,0,0,49.05,49.19Z"/><path class="a" d="M51,52.17c.57-1.55,1.79-2.37,3.23-1.85a1.49,1.49,0,0,1,1,1.86c-.12.33-.38.34-.64.24a.67.67,0,0,1-.17-.07c-.18-.13-.11-.31-.12-.48a.53.53,0,0,0-.37-.55c-.75-.27-1.47.39-1.76,1.19-.41,1.13-.13,2,.69,2.29a1.6,1.6,0,0,0,1.62-.52c.15-.18.21-.17.26-.15.26.1.25.3.18.49a2.14,2.14,0,0,1-2.53.88A2.39,2.39,0,0,1,51,52.17Z"/><path class="a" d="M56,54.1c.54-1.49,1.46-2.84,3.24-2.19,1.26.46,1.34,1.77,1,2.84-.48,1.32-1.71,2.68-3.18,2.15A2.1,2.1,0,0,1,56,54.1Zm3.38.26c.19-.54.13-1.23-.41-1.43-1.08-.39-1.59.69-1.87,1.45s-.19,1.34.35,1.53C58.38,56.24,59.09,55.19,59.4,54.36Z"/><path class="a" d="M61.45,54.9c.37-1,.93-1.87,1.51-1.66.38.14.7.5.58.81a2,2,0,0,1-.24.36,5.91,5.91,0,0,0-.84,1.3c-.09.27-.56,1.74-.25,1.85.12,0,.5-.28.77-.55.59-.62,1-1.13,1.55-1.62s1-.73,1.51-.55.33,1.73.25,2.12-.08.49-.13.67-.11.57,0,.6.31-.12.56-.34a23.33,23.33,0,0,1,1.93-1.65,1,1,0,0,1,.88-.22.62.62,0,0,1,.43.84c-.27.74-.32.83-.35.92a3.82,3.82,0,0,0-.29,2.46c.06.16.22.33.16.51a.46.46,0,0,1-.65.27,1.34,1.34,0,0,1-.45-.32c-.59-.64-.35-1.86-.09-2.71.1-.32.14-.58,0-.61s-.3.13-.44.26c-.55.48-1,1-1.5,1.45-.33.33-.69.68-1,.57a.76.76,0,0,1-.43-.36,4.57,4.57,0,0,1,.1-1.8c.15-.78.19-1.26,0-1.32s-.9.52-1.38,1c-.29.3-.51.5-.68.66-.52.51-1.09,1-1.49.82a1.43,1.43,0,0,1-.48-.36c-.18-.23-.19-.74-.05-1.52A8.12,8.12,0,0,1,61.45,54.9Z"/><path class="a" d="M72.14,61.09A2.38,2.38,0,0,0,73,60.5a12.44,12.44,0,0,1,2.07-1.83,1.11,1.11,0,0,1,1-.17c.62.23.29,1.7.21,2.09a5.32,5.32,0,0,1-.12.67c-.08.3-.12.57,0,.6s.24-.14.48-.36c1.68-1.86,2.3-2,2.77-1.78a.83.83,0,0,1,.51.59A20.77,20.77,0,0,1,79.5,63a2.76,2.76,0,0,0,0,1.15c.06.15.22.33.16.5a.44.44,0,0,1-.63.26,1.29,1.29,0,0,1-.46-.31c-.44-.49-.3-1.47-.19-2.2s.26-1.34,0-1.44-.42.13-.7.42-1,1-1.35,1.38-.7.69-1,.58a.71.71,0,0,1-.43-.37,4.57,4.57,0,0,1,.1-1.8c.15-.78.19-1.25,0-1.32s-.89.46-1.37,1c-.28.29-.5.5-.67.66-.46.44-1.12.8-1.5.69l-.2,0a.82.82,0,0,1-.39-.31c-.39-.5.14-2.15.37-2.78.52-1.41,1.11-2.28,1.68-2.08a.83.83,0,0,1,.5.93.6.6,0,0,1-.12.17s-.07.07-.54.66a6.35,6.35,0,0,0-.6,1.24C72,60.55,71.93,61,72.14,61.09Z"/><path class="a" d="M84.61,65.47c.19-.1.28-.22.45-.16s.18.32.11.5c-.24.68-1.69.94-2.71.57-1.58-.58-1.75-2.18-1.28-3.48A2.64,2.64,0,0,1,84.55,61a1.25,1.25,0,0,1,.83,1.57,2.37,2.37,0,0,1-.75,1,4.81,4.81,0,0,1-2.5.83A1.36,1.36,0,0,0,83,65.75,1.81,1.81,0,0,0,84.61,65.47ZM84,61.93c-.9-.33-1.49.75-1.7,1.36a3.37,3.37,0,0,0-.14.46,2.22,2.22,0,0,0,2.15-1.23A.48.48,0,0,0,84,61.93Z"/><path class="a" d="M89.67,65.19c-.48-.18-1.7,1-2.08,1.4l-.18.19a2.67,2.67,0,0,0-.37.62.39.39,0,0,1-.47.25l-.2-.09a1,1,0,0,1-.31-.27c-.38-.5.15-2.16.38-2.79.51-1.41,1.11-2.28,1.68-2.07a.81.81,0,0,1,.49.92.38.38,0,0,1-.12.17s-.07.08-.54.67a6,6,0,0,0-.6,1.24,3.37,3.37,0,0,0-.19.66c.71-.77,2.34-2.5,3.56-2.06.34.13.55.46.54,1.08a16.11,16.11,0,0,1-.29,2,2.76,2.76,0,0,0,0,1.15c.06.16.22.34.16.51a.45.45,0,0,1-.63.26,1.44,1.44,0,0,1-.46-.31,2.71,2.71,0,0,1-.19-2.21C90,65.8,90,65.29,89.67,65.19Z"/><path class="a" d="M99.14,62.16c.33.12.52.36.45.59a.35.35,0,0,1-.07.15A23.56,23.56,0,0,0,98,66l-.07.19a11.5,11.5,0,0,0-1,4.59,1.93,1.93,0,0,1,0,.32.45.45,0,0,1-.58.27c-.58-.22-.55-1.35-.3-2.62a2.61,2.61,0,0,1-2.89,1.15,1.94,1.94,0,0,1-.85-2.61c.58-1.61,1.94-2.37,3.08-1.95a1.93,1.93,0,0,1,1.23,1.19c.15-.44.27-.83.38-1.13C97.54,64,98.36,61.88,99.14,62.16Zm-2.82,5.52s0,0,0-.07a1.87,1.87,0,0,0-1-1.34c-.64-.24-1.49.28-1.89,1.38-.28.78-.08,1.38.32,1.53C94.62,69.5,95.82,68.29,96.32,67.68Z"/><path class="a" d="M24.23,56.14c-.82,2.26-.93,2.83-1.13,3.38,0,.08,0,.2-.07.29s-.15.24-.41.15a.91.91,0,0,1-.14-.07c-.14-.06-.17-.28-.16-.55a28.51,28.51,0,0,1,.82-3.52l-.7-.06a.3.3,0,0,1-.14,0c-.09,0-.11-.11-.05-.27.24-.48.48-.46.89-.45h.23c.13-.45.27-.87.4-1.24.23-.63.73-2,1.48-1.72.35.13.57.35.52.58a.67.67,0,0,1-.06.12,24.52,24.52,0,0,0-1.09,2.34,11.34,11.34,0,0,1,2.64.59c.11,0,.32.12.2.44s-.39.62-.64.53l-.41-.18A12.65,12.65,0,0,0,24.29,56Zm6.24-4.29a.5.5,0,0,1,.2.59c-.11.32-.41.73-.58.66A6.52,6.52,0,0,0,27.84,52a16.13,16.13,0,0,0-3.95-.81,1.46,1.46,0,0,1-.56-.06c-.14-.06-.15-.3-.06-.53a.37.37,0,0,1,.31-.24c.65-.11,2.27-.43,5.6.78A4.18,4.18,0,0,1,30.47,51.85Z"/><path class="a" d="M29.56,59A4.55,4.55,0,0,0,29,60l-.13.37c-.31.83-.62.95-1.1.78s-.24-.42-.13-.72a12.93,12.93,0,0,0,.79-2.84c0-.27.09-.54.18-.91a.73.73,0,0,1,.11-.18.56.56,0,0,1,.58-.13c.47.17.5.45.31,1.42a7.6,7.6,0,0,1,.78-.59,2.07,2.07,0,0,1,1.84-.35.72.72,0,0,1,.51.86c-.1.29-.38.59-.65.49L32,58.08a.55.55,0,0,0-.36-.25C30.84,57.53,30,58.35,29.56,59Z"/><path class="a" d="M35.51,62.5c.19-.11.28-.22.45-.16s.18.32.12.5c-.25.68-1.7.94-2.71.57-1.58-.58-1.76-2.18-1.29-3.48.55-1.49,1.87-2.44,3.38-1.89a1.26,1.26,0,0,1,.83,1.57,2.37,2.37,0,0,1-.75,1,4.76,4.76,0,0,1-2.51.84,1.39,1.39,0,0,0,.86,1.31A1.8,1.8,0,0,0,35.51,62.5ZM34.94,59c-.89-.33-1.48.75-1.7,1.36-.06.16-.1.32-.14.46a2.22,2.22,0,0,0,2.15-1.23A.46.46,0,0,0,34.94,59Z"/><path class="a" d="M37.69,60.64l0-.06c.4-1.11,1.83-1.2,2.9-.88a.64.64,0,0,1,.43.87c-.16.43-2-.41-2.28.42-.16.46.93,1.52,1.17,1.83a1.18,1.18,0,0,1,.27,1.2c-.41,1.1-2.41,1-3.27.66-.35-.13-.76-.37-.62-.75,0-.14.15-.26.28-.21s.22.11.32.15c.56.2,1.82.36,2.07-.31S37.28,61.94,37.69,60.64Z"/><path class="a" d="M45.23,65.56l.28-1.45a.5.5,0,0,0-.29-.55c-.12,0-.33.08-.52.19a27.88,27.88,0,0,0-2.08,2c-.31.29-.76.65-1.16.5a.58.58,0,0,1-.29-.64,18.75,18.75,0,0,1,1.2-4.48c.3-.84.64-1.63,1-2.43s.61-1.32.82-1.24c.73.26.81.66.62,1.16a1.36,1.36,0,0,1-.11.28A33.67,33.67,0,0,0,43,62.58c-.21.56-.63,1.82-.74,2.31,0,.07,0,.11,0,.12s.11-.05.17-.13a13.43,13.43,0,0,1,1.95-2,1.91,1.91,0,0,1,1.73-.33c.83.3.7,1.27.51,2a15.89,15.89,0,0,0-.42,1.84,4.57,4.57,0,0,0,0,.82,1.51,1.51,0,0,1,0,.31.48.48,0,0,1-.74.18C45,67.26,45.13,66.39,45.23,65.56Z"/><path class="a" d="M48.36,68.37c1.69.62,4.15,1,4.92-1.08.3-1.07-.38-1.57-1.58-2-.24-.09-.78-.11-1-.17a.8.8,0,0,1-.19-.13c-.07.2-.15.41-.21.64-.19.59-.31,1.26-.47,1.9,0,.14-.15.56-.22.8a.2.2,0,0,1,0,.08c0,.07-.09.13-.32,0-.39-.14-.43-.63-.37-1.09a23.2,23.2,0,0,1,.9-3.56c.07-.26.17-.51.26-.76.38-1,.87-1.93,1.52-1.69.35.12.59.36.53.5a14.34,14.34,0,0,0-1.31,2.4,1.52,1.52,0,0,0,.67,0A3.23,3.23,0,0,0,54,62.64c.29-.86-.45-1.22-1.2-1.49a5.1,5.1,0,0,0-2.09-.42,5.54,5.54,0,0,0-1.56.13.4.4,0,0,1-.09-.48c.18-.35.6-.66,2-.52a10.29,10.29,0,0,1,2.44.5c1,.37,2.32,1.13,1.87,2.36a3.72,3.72,0,0,1-3.18,2,2.43,2.43,0,0,1,.38.13c1.17.42,2.49,1.42,2,2.87-1,2.66-4.4,2.19-6.65,1.37-.45-.17-1-.44-.78-.9.09-.25.31-.44.45-.38s.14.15.43.39A1.26,1.26,0,0,0,48.36,68.37Z"/><path class="a" d="M55.26,68.72c.54-1.49,1.46-2.84,3.24-2.19,1.26.46,1.34,1.77,1,2.84-.49,1.32-1.71,2.68-3.19,2.15A2.09,2.09,0,0,1,55.26,68.72Zm3.37.26c.2-.54.14-1.23-.4-1.43-1.08-.39-1.59.69-1.87,1.45s-.19,1.34.35,1.53C57.62,70.86,58.33,69.81,58.63,69Z"/><path class="a" d="M60.08,70.25c.52-1.43,1.59-2.46,3.13-1.9,1.29.47,1.38,1.82,1,2.87-.46,1.26-1.76,2.49-3.15,2.06C59.86,72.84,59.58,71.61,60.08,70.25Zm3.36.51a1,1,0,0,0-.51-1.39c-1-.37-1.53.8-1.79,1.51s-.17,1.3.38,1.51C62.45,72.73,63.13,71.6,63.44,70.76Z"/><path class="a" d="M66.41,71.65c-.07.17-.13.35-.19.54a7.51,7.51,0,0,1,2.93-1.56,1.34,1.34,0,0,1,.63,0,.67.67,0,0,1,.35,1c-.06.19-.35.08-.81.18a8.82,8.82,0,0,0-1.84.6,7.36,7.36,0,0,0,1.66,3.09.15.15,0,0,1,0,.17.65.65,0,0,1-.82.33c-.92-.34-1.47-1.7-1.82-3.08l-.62.36c-.16.63-.29,1.19-.34,1.33-.12.35-.23.44-.43.37-.62-.23-.52-.77-.39-1.26.33-1.19.62-2.25,1.08-3.51a37.58,37.58,0,0,1,1.53-3.65c.12-.26.3-.43.58-.33s.65.49.51.88c0,.06-.08.14-.2.4A26.86,26.86,0,0,0,66.41,71.65Z"/><path class="a" d="M70.1,75.82c.19.07.38.2.65.3.61.22,1.31.34,1.51-.22S70.6,74,71.06,72.68l0-.07c.48-1.11,2-1,2.85-.74l.16.06c.36.16.45.31.35.57a1.17,1.17,0,0,1-.11.23c-.27.47-1.81-.48-2.12.38-.15.42.26.93.57,1.43.45.69.91,1.19.68,1.82l0,.07c-.37.89-1.92.82-2.75.56l-.13,0a4.3,4.3,0,0,1-.65-.28.69.69,0,0,1-.3-.76c0-.12.16-.2.37-.12Z"/><path class="a" d="M3.62,83.2a18,18,0,0,0,2,.13l1.24,0,1.33-.05a29.25,29.25,0,0,0,3-.25c1.05-.09,2.11-.35,3.24-.53s2.24-.51,3.35-.88,2.27-.73,3.39-1.14,2.22-.89,3.29-1.39L26,78.37l1.52-.8c1-.51,1.93-1.1,2.83-1.62s1.73-1.07,2.48-1.6,1.45-1,2-1.45,1.13-.83,1.55-1.18l1.33-1.07a.52.52,0,0,0,0-.56c-.1-.21-.27-.32-.38-.24l-1.37,1c-.43.32-1,.66-1.58,1.08s-1.33.84-2.1,1.32-1.62.93-2.52,1.44S28,75.68,27,76.13l-1.54.7-1.6.66c-1.08.44-2.2.82-3.33,1.19s-2.26.69-3.4.94-2.27.46-3.36.68-2.18.32-3.22.36-2,.12-2.94.09l-1.31,0-1.2-.1a16.21,16.21,0,0,1-2-.22C2,80.23,2,80.47,2,80.47c-.48-.08-.6,2.45-.11,2.53Z"/><path class="a" d="M13.84,90.66c-.55-.33-1-.66-1.52-1s-1-.74-1.46-1.12C9.9,87.76,9,87,8.05,86.15S6.27,84.48,5.47,83.6a17.15,17.15,0,0,1-1.14-1.33c-.18-.22-.33-.45-.48-.67s-.24-.43-.37-.64v1.69c.15-.27.28-.53.47-.81s.34-.56.54-.83c.38-.56.79-1.12,1.21-1.67.84-1.1,1.73-2.18,2.64-3.24S10.19,74,11.16,73c.49-.5,1-1,1.49-1.47.25-.23.5-.48.76-.69a8.66,8.66,0,0,1,.79-.6l0,0a.53.53,0,0,0-.55-.91q-.53.27-1,.57c-.32.19-.6.41-.9.62-.59.42-1.16.86-1.73,1.31q-1.68,1.35-3.28,2.79t-3.13,3c-.52.52-1,1-1.52,1.6-.25.27-.49.56-.73.85s-.48.63-.72.95l0,0a1.37,1.37,0,0,0,0,1.67,10.82,10.82,0,0,0,.7.88c.25.26.49.52.73.75.49.47,1,.89,1.5,1.3,1,.82,2.06,1.56,3.12,2.26s2.13,1.37,3.23,2c.55.32,1.1.62,1.66.91s1.17.59,1.73.82h0a.52.52,0,0,0,.47-.92"/></svg>