<svg xmlns="http://www.w3.org/2000/svg" viewBox="0 0 1280 302.92" width="1280px" height="302.92px"><defs><style>.a{fill:#fff;}.b{fill:#fdd9e6;}.c{fill:#0d80d7;}.d{fill:#f9e699;}.e{fill:#fcb3cd;}.f{fill:#a4d6f7;}.g{fill:#deeef9;}.h{fill:#eff8fc;}.i{fill:#e4f4fe;}.j{fill:#cde9fc;}.k{fill:#b8dff9;}.l{fill:#88caf6;}.m{fill:#80c01f;}.n{fill:#a8e0b2;}.o{fill:#94d79f;}.p{fill:#dcf3e0;}.q{fill:#cce9fc;}.r{fill:#fcdd5e;}.s{fill:#e8f6fd;}.t{fill:#bde1f9;}.u{fill:#b7dff9;}.v{fill:#d1ebfa;}.w{fill:#b0dbf8;}.x{fill:#ddf0fc;}.y{fill:#d8eefb;}.z{fill:#ebf7fd;}.aa{fill:#cfe9fa;}</style></defs><title>cityscape</title><polygon class="a" points="243.79 224.12 222.87 224.12 229.48 302.76 243.79 302.76 243.79 224.12"/><polygon class="a" points="198.8 224.12 186.03 224.12 186.03 245.22 197.03 245.22 198.8 224.12"/><path class="b" d="M182.76,61.47a1,1,0,0,1-.71-.29L145.79,24.9a1,1,0,0,1,1.41-1.43l36.26,36.26a1,1,0,0,1-.71,1.71Z"/><path class="b" d="M146.5,61.47a1,1,0,0,1-.71-1.71L182,23.47a1,1,0,0,1,1.42,1.42L147.2,61.16a1,1,0,0,1-.71.29"/><path class="b" d="M164.63,69a1,1,0,0,1-1-1V16.68a1,1,0,0,1,2,0V68a1,1,0,0,1-1,1"/><path class="b" d="M190.29,43.32H139a1,1,0,0,1,0-2h51.31a1,1,0,0,1,0,2"/><path class="b" d="M173.73,67.29a1,1,0,0,1-.94-.65L154.58,18.71a1,1,0,0,1,1.87-.71h0l18.22,47.94a1,1,0,0,1-.58,1.29h0a1,1,0,0,1-.36.07"/><path class="b" d="M141,53.39a1,1,0,0,1-.39-1.92l47.17-20.13a1,1,0,1,1,.85,1.81l-.07,0L141.43,53.3a1,1,0,0,1-.39.08"/><path class="b" d="M188.48,52.73a1,1,0,0,1-.37-.07l-47.7-18.82a1,1,0,0,1,.73-1.86L188.85,50.8a1,1,0,0,1-.37,1.93"/><path class="b" d="M155,67.11a1,1,0,0,1-.93-1.37l19.17-47.58a1,1,0,1,1,1.86.75h0L156,66.47a1,1,0,0,1-.93.63"/><path class="c" d="M104.55,285.1c-1-.36-.88-.22-.62-.09s.73.3-.37-.31c-.47-.26-.94-.51-1.4-.79-.07,0-2-1.49-.94-.59a20,20,0,0,1-1.48-1.37,18.92,18.92,0,0,1-1.35-1.48c.7.88-.11-.25-.34-.62-.35-.57-.67-1.16-1-1.75s-.34-.57-.26-.43.2.31-.1-.59a8.44,8.44,0,0,0-10.15-5.76c-4.14,1.14-7.17,5.9-5.76,10.15A30.51,30.51,0,0,0,100.15,301c4.08,1.42,9.2-1.61,10.15-5.76a8.45,8.45,0,0,0-5.76-10.15"/><path class="d" d="M47.67,159.19a5.78,5.78,0,1,1-5.78-5.78h0a5.78,5.78,0,0,1,5.78,5.78"/><path class="a" d="M51.48,135.33a5.78,5.78,0,1,1-5.78-5.78h0a5.78,5.78,0,0,1,5.78,5.78"/><path class="e" d="M70.57,150.6a5.78,5.78,0,1,1-5.78-5.78h0a5.78,5.78,0,0,1,5.78,5.78"/><polygon class="f" points="81.97 238.12 130.1 238.12 130.1 124.54 81.97 124.54 81.97 238.12"/><path class="a" d="M289.89,266h0a74.6,74.6,0,0,0-149.2,0,76.49,76.49,0,0,0,9.43,36.72H280.46A76.51,76.51,0,0,0,289.89,266Z"/><polygon class="a" points="74.27 164.97 91.6 164.97 71.98 188.91 74.27 164.97"/><polygon class="g" points="91.6 164.85 91.6 261.22 43.47 261.22 43.47 199.97 91.6 164.85"/><polygon class="f" points="74.27 164.85 74.27 261.22 26.14 261.22 26.14 199.97 74.27 164.85"/><rect class="h" x="186.03" y="224.12" width="57.76" height="78.64"/><polygon class="h" points="197.48 302.76 229.77 302.76 222.23 212.93 195.84 212.93 193.89 236.06 197.48 236.06 197.48 302.76"/><polygon class="h" points="197.48 236.06 193.89 236.06 188.28 302.76 197.48 302.76 197.48 236.06"/><polygon class="a" points="216.56 147.7 215.19 131.49 210.07 70.4 209.03 58.12 207.99 70.38 202.08 140.94 200.52 159.4 198.64 181.81 198.62 182.06 218.28 168.11 216.56 147.7"/><polygon class="f" points="198.62 182.06 198.42 182.2 188.28 302.76 188.47 302.76 198.62 182.06"/><polygon class="f" points="229.59 302.76 229.77 302.76 219.43 179.62 218.45 167.99 218.28 168.11 219.43 181.81 229.59 302.76"/><polygon class="f" points="229.48 302.76 229.59 302.76 219.43 181.81 218.28 168.11 198.62 182.06 188.47 302.76 229.48 302.76"/><path class="i" d="M135.73,183V302.76H1.95V229.47c0-4.13,2.25-7.77,6.2-8.93L135.73,183"/><path class="a" d="M239.66,110.24a1.87,1.87,0,0,1-.1.56c-1.17,3.77-14.38,6.74-30.53,6.74s-29.36-3-30.53-6.74a1.87,1.87,0,0,1-.1-.56c0-4,13.71-7.28,30.63-7.28s30.63,3.25,30.63,7.28"/><polygon class="a" points="170.53 98.28 107.45 67.03 107.45 302.76 170.53 302.76 170.53 98.28"/><path class="j" d="M107,221.86,6.16,247.17a4.71,4.71,0,0,0,.21,9.18l68.48,13.78L1.95,288.91v9.72l95.13-24.48a4.7,4.7,0,0,0-.25-9.16L28.64,251.24,107,231.58v-9.72"/><polygon class="f" points="170.53 123.79 107 170.15 107 302.76 170.53 302.76 170.53 123.79"/><path class="k" d="M119.51,79a2.89,2.89,0,0,0-2.89,2.89h0v81.21l5.78-4.21v-77A2.89,2.89,0,0,0,119.51,79"/><path class="l" d="M122.4,158.91l-5.78,4.21V297.54a2.89,2.89,0,0,0,5.78,0V158.91"/><path class="k" d="M133,84.8a2.89,2.89,0,0,0-2.89,2.89v65.6l5.78-4.22V87.69A2.89,2.89,0,0,0,133,84.8"/><path class="l" d="M135.88,149.07l-5.78,4.22V297.54a2.89,2.89,0,0,0,5.78,0V149.07"/><path class="k" d="M146.46,92.47a2.89,2.89,0,0,0-2.89,2.89v48.11l5.78-4.22V95.39a2.89,2.89,0,0,0-2.86-2.92h0"/><path class="l" d="M149.35,139.24l-5.77,4.23V297.54a2.89,2.89,0,0,0,5.78,0V139.24"/><path class="k" d="M159.94,102.13A2.89,2.89,0,0,0,157,105v28.6l5.78-4.22V105a2.89,2.89,0,0,0-2.89-2.89"/><path class="l" d="M162.83,129.41,157,133.62V297.54a2.89,2.89,0,0,0,5.78,0h0V129.41"/><path class="f" d="M214.19,117.47l1,11.86-13.11,9.45,1.79-21.31c-13.73-.56-24.33-3.27-25.37-6.64h61.07c-1,3.37-11.65,6.08-25.37,6.64"/><path class="m" d="M98.66,292.4a3.85,3.85,0,1,1-3.85-3.85,3.85,3.85,0,0,1,3.85,3.85h0"/><path class="n" d="M98.85,253.59c-11.18,0-20.57,20.82-23.39,49.17h46.75C119.42,274.43,110,253.59,98.85,253.59Z"/><path class="o" d="M89.61,302.76c-1.9-18.55-8-32.2-15.41-32.2s-13.51,13.62-15.4,32.2h30.8Z"/><polygon class="h" points="188.28 302.76 193.89 236.06 181.84 236.06 170.53 236.06 170.53 302.76 186.03 302.76 188.28 302.76"/><path class="p" d="M140.88,302.76c-1.9-18.55-8-32.2-15.41-32.2s-13.51,13.62-15.4,32.2h30.8Z"/><polyline class="q" points="107 202.21 1.95 232.6 1.95 238.83 107 208.4 107 202.21"/><path class="b" d="M1173.81,35l39.84,39.85a1.1,1.1,0,0,0,1.56-1.56l-39.85-39.84a1.1,1.1,0,1,0-1.68,1.42Z"/><path class="b" d="M1213.65,33.43l-39.84,39.84a1.1,1.1,0,0,0,1.55,1.56L1215.21,35a1.1,1.1,0,1,0-1.42-1.68l-.13.13"/><path class="b" d="M1193.4,26V82.3a1.1,1.1,0,0,0,2.2,0V26a1.1,1.1,0,0,0-2.2,0h0"/><path class="b" d="M1222.68,53h-56.35a1.1,1.1,0,0,0,0,2.2h56.35a1.1,1.1,0,1,0,0-2.2"/><path class="b" d="M1205.54,80.07l-20-52.67a1.1,1.1,0,1,0-2.05.78l20,52.67a1.1,1.1,0,0,0,2.05-.78"/><path class="b" d="M1169,66.19l51.82-22.11a1.1,1.1,0,1,0-.86-2l-51.77,22.09a1.1,1.1,0,0,0,.86,2"/><path class="b" d="M1167.89,44.83l52.42,20.66a1.1,1.1,0,1,0,.81-2L1168.7,42.76a1.1,1.1,0,1,0-.81,2"/><path class="b" d="M1185,80.67l21.05-52.26a1.1,1.1,0,1,0-2-.82L1183,79.83a1.1,1.1,0,1,0,2,.82"/><path class="r" d="M1118,74.24a67,67,0,1,1-67-67,67,67,0,0,1,67,67"/><path class="r" d="M1243.91,119a5.54,5.54,0,1,0,5.54-5.54h0a5.54,5.54,0,0,0-5.54,5.54"/><path class="a" d="M1240.21,96.1a5.54,5.54,0,1,0,5.54-5.54h0a5.54,5.54,0,0,0-5.54,5.54"/><path class="n" d="M1221.93,110.75a5.54,5.54,0,1,0,5.54-5.54h0a5.54,5.54,0,0,0-5.54,5.54"/><path class="c" d="M1159.67,298.12a36.64,36.64,0,0,0,23.26-23.49c1.63-4.92-1.89-11-6.92-12.19a10.14,10.14,0,0,0-12.19,6.92c-.46,1.39-.22,1-.05.66s.27-.71-.38.56c-.29.57-.59,1.14-.92,1.7,0,0-1.72,2.51-.67,1.16a20.46,20.46,0,0,1-1.59,1.79q-.85.86-1.77,1.64c1-.86-.27.16-.72.45-.68.44-1.39.81-2.09,1.21-.93.53-.62.43-.45.33s.21-.17-.75.16c-5.05,1.75-8.4,6.79-6.92,12.19,1.35,4.91,7.11,8.68,12.19,6.92"/><path class="s" d="M1204.21,108.83h-52.75v60.32l19.34,5.68V135h19.33l.41-.31v45.92l.22.06V134.59l13.45,9.79Zm-13.64,25.85v-.35l.15.24Z"/><polygon class="a" points="1170.8 251.27 1190.55 251.27 1190.55 135 1170.8 135 1170.8 251.27"/><polygon class="f" points="1190.77 134.59 1190.77 250.33 1248.57 250.33 1248.57 176.76 1190.77 134.59"/><polygon class="a" points="1116.78 159 1116.78 303.51 1278.63 303.51 1278.63 206.4 1116.78 159"/><polygon class="a" points="1074.83 302.97 1150.92 302.97 1150.92 57.27 1074.83 57.27 1074.83 302.97"/><polygon class="t" points="1151.46 87.9 1150.92 88.3 1150.92 108.84 1151.46 108.84 1151.46 87.9"/><polygon class="u" points="1151.46 108.84 1150.92 108.84 1150.92 169 1151.46 169.16 1151.46 108.84"/><polygon class="t" points="1150.92 169 1150.92 296.57 1151.46 296.19 1151.46 169.16 1150.92 169"/><polygon class="t" points="1150.92 88.3 1075.16 143.58 1075.16 302.97 1075.16 302.97 1087.44 302.97 1116.78 302.97 1141.86 302.97 1150.92 296.57 1150.92 169 1150.92 108.84 1150.92 88.3"/><polygon class="v" points="1278.34 206.56 1151.46 296.19 1151.46 303.19 1278.34 303.19 1278.34 206.56"/><polygon class="w" points="1151.46 296.19 1150.92 296.57 1150.92 302.97 1141.86 302.97 1141.55 303.19 1151.46 303.19 1151.46 296.19"/><polygon class="w" points="1150.92 296.57 1141.86 302.97 1150.92 302.97 1150.92 296.57"/><path class="m" d="M1161.48,290.41a4.62,4.62,0,1,0,4.66-4.58h0a4.62,4.62,0,0,0-4.62,4.62"/><path class="a" d="M1190.08,233.83l32.75.28-32.75-.85v.57"/><path class="o" d="M1133.08,303.73h56.35c-3.28-34.48-14.65-59.9-28.22-59.9s-24.9,25.43-28.18,59.91"/><path class="o" d="M1172.21,303.73h37.17c-2.16-22.75-9.66-39.52-18.59-39.52s-16.44,16.77-18.58,39.52"/><path class="o" d="M1110.61,303.73h37.17c-2.16-22.75-9.66-39.52-18.59-39.52s-16.42,16.77-18.58,39.52"/><polygon class="a" points="1040.68 303.73 1075.01 303.73 1075.01 103.36 1040.68 103.36 1040.68 303.73"/><polygon class="x" points="1075.14 103.26 1075 103.36 1075.01 103.36 1075.01 302.97 1075.14 302.97 1075.14 103.26"/><polygon class="x" points="1075.01 103.36 1075 103.36 1046.23 124.36 1046.23 303.37 1075.01 303.37 1075.01 302.97 1075.01 103.36"/><polygon class="y" points="1190.55 134.69 1190.14 135 1190.55 135 1190.55 180.61 1190.55 134.69"/><polygon class="z" points="1190.55 135 1190.14 135 1170.8 149.46 1170.8 174.82 1188.68 180.06 1190.55 180.61 1190.55 135"/><polygon class="z" points="1188.68 180.06 1190.55 180.61 1190.55 180.61 1188.68 180.06"/><polygon class="aa" points="1190.55 134.34 1190.55 134.69 1190.7 134.58 1190.55 134.34"/><polygon class="f" points="1100.23 102.47 1108.28 102.47 1108.28 72.11 1100.23 72.11 1100.23 102.47"/><polygon class="f" points="1117.47 102.47 1125.51 102.47 1125.51 72.11 1117.47 72.11 1117.47 102.47"/><polygon class="f" points="1100.23 165.35 1108.28 165.35 1108.28 135 1100.23 135 1100.23 165.35"/><polygon class="f" points="1117.47 165.35 1125.51 165.35 1125.51 135 1117.47 135 1117.47 165.35"/><polygon class="f" points="1100.23 229.15 1108.28 229.15 1108.28 198.8 1100.23 198.8 1100.23 229.15"/><polygon class="f" points="1117.47 229.15 1125.51 229.15 1125.51 198.8 1117.47 198.8 1117.47 229.15"/><path class="a" d="M1074.28,62.6h76.78a3.29,3.29,0,0,0,0-6.58h-76.78a3.29,3.29,0,1,0,0,6.58"/><polygon class="f" points="1041.54 303.73 1076.47 303.73 1076.47 207.46 1041.54 207.46 1041.54 303.73"/><path class="x" d="M1165.32,177.78a3.29,3.29,0,0,0-3.29,3.29v54.84a3.29,3.29,0,1,0,6.58,0V181.07a3.29,3.29,0,0,0-3.29-3.29"/><path class="x" d="M1180.67,184.36a3.29,3.29,0,0,0-3.29,3.29v57a3.29,3.29,0,0,0,6.58,0v-57a3.29,3.29,0,0,0-3.29-3.29"/><path class="x" d="M1196,186.55a3.29,3.29,0,0,0-3.29,3.29v43.49l6.58.17V189.83a3.29,3.29,0,0,0-3.29-3.29m-3.29,47.29v19.61a3.29,3.29,0,0,0,6.58,0V233.91l-6.58-.06"/><path class="x" d="M1192.74,233.33v.5l6.58.06v-.41l-6.58-.17"/><path class="x" d="M1211.39,193.13a3.29,3.29,0,0,0-3.29,3.29v37.31l6.58.17V196.42a3.29,3.29,0,0,0-3.29-3.29M1208.1,234v8.51a3.29,3.29,0,0,0,6.58,0V234l-6.58-.06"/><path class="x" d="M1208.1,233.73V234l6.58.06v-.14l-6.58-.17"/><path class="x" d="M1226.74,195.33a3.29,3.29,0,0,0-3.29,3.29v32.91a3.29,3.29,0,0,0,6.58,0V198.62a3.29,3.29,0,0,0-3.29-3.29"/><path class="x" d="M1242.1,201.91a3.29,3.29,0,0,0-3.29,3.29v17.55a3.29,3.29,0,0,0,6.58,0V205.2a3.29,3.29,0,0,0-3.29-3.29"/><path class="x" d="M1257.45,204.1a3.29,3.29,0,0,0-3.29,3.29V214a3.29,3.29,0,1,0,6.58,0h0v-6.58a3.29,3.29,0,0,0-3.29-3.29"/></svg>
