<svg xmlns="http://www.w3.org/2000/svg" viewBox="0 0 1280 127"><defs><style>.a{fill:#cde4f7;}</style></defs><title>dotted-left</title><path class="a" d="M662.28,0.06H650.13v3.5h12.13V0.06h0Zm-21.15,0H629v3.5h12.11V0.06Zm-21.1,0H608v3.5h12V0.06Zm-21.11,0h-12v3.5h12V0.06Zm-21.05,0h-12v3.5h12V0.06Zm-21,0h-12v3.5h12V0.06Zm-21,0h-12v3.5h12V0.06Zm-21,0h-12v3.5h12V0.06Zm-21,0h-12v3.5h12V0.06Zm-21,0h-12v3.5h12V0.06Zm-21,0h-12v3.5h12V0.06Zm-21,0h-12v3.5h12V0.06Zm-21,0h-12v3.5h12V0.06Zm-21,0h-12v3.5h12V0.06Zm-21,0h-12v3.5h12V0.06Zm-21,0h-12v3.5h12V0.06Zm-21,0h-12v3.5h12V0.06Zm-21,0h-12v3.5h12V0.06Zm-21,0h-12v3.5h12V0.06Zm-21,0h-12v3.5h12V0.06Zm-21,0h-12v3.5h12V0.06Zm-21,0h-12v3.5h12V0.06Zm-21,0h-12v3.5h12V0.06Zm-21,0h-12v3.5h12V0.06Zm-21,0h-12v3.5h12V0.06Zm-21,0h-12v3.5h12V0.06Zm-21,0h-12v3.5h12V0.06Zm-21,0h-12v3.5h12V0.06Zm-21,0h-12v3.5h12V0.06Zm-21,0h-12v3.5h12V0.06Zm-21,0h-12v3.5h12V0.06Zm-21,0h-12v3.5h12V0.06Zm-21,0h-12v3.5h12V0.06Zm-21,0h-12v3.5h12V0.06Zm-21,0h-12v3.5h12V0.06Zm-21,0h-12v3.5h12V0.06Zm-21,0h-12v3.5h12V0.06Zm-21,0h-12v3.5h12V0.06Zm-21,0h-12v3.5h12V0.06Zm-21,0h-12v3.5h12V0.06Zm-21,0h-12v3.5h12V0.06Zm-21,0h-12v3.5h12V0.06Zm-21,0h-12v3.5h12V0.06Zm-21,0h-12v3.5h12V0.06Zm-21,0h-12v3.5h12V0.06Zm-21,0h-12v3.5h12V0.06Zm-21,0h-12v3.5h12V0.06Zm-21,0h-12v3.5h12V0.06Zm-21,0h-12v3.5h12V0.06Zm-21,0h-12v3.5h12V0.06Zm-21,0h-12v3.5h12V0.06Zm-21.06,0h-12v3.5h12V0.06Zm-21.08,0h-12.07v3.5h12.07V0.06Zm-21.14,0h-12.23v3.5h12.23V0.06ZM683.22,3.83c-3.62-.13-7.42-0.21-12-0.24V0.06c4.57,0,8.4.11,12,.25l-0.13,3.5h0.08ZM704,5.5c-3.78-.5-7.65-0.9-11.83-1.19l0.25-3.49c4.25,0.31,8.19.7,12,1.22l-0.46,3.47h0Zm20.29,4.17c-3.65-1.06-7.52-2-11.51-2.75l0.66-3.44c4.09,0.79,8.07,1.74,11.82,2.82l-1,3.36h0Zm19.14,7.62a97.37,97.37,0,0,0-10.74-4.82l1.24-3.27a100.83,100.83,0,0,1,11.13,5l-1.63,3.1h0ZM760.36,28.9A86.18,86.18,0,0,0,751,21.78l1.93-2.92a89.59,89.59,0,0,1,9.72,7.41l-2.31,2.63h0Zm14.06,15.22c-2.52-3.08-4.57-5.5-6.07-7.22q-0.83-1-1.68-1.86l2.57-2.38q0.88,1,1.74,1.93c1.53,1.74,3.59,4.2,6.14,7.31l-2.76,2.22h0.06Zm13.16,16.39c-2.64-3.33-5.16-6.49-7.49-9.39l2.73-2.19c2.34,2.91,4.86,6.07,7.51,9.41l-2.74,2.17h0Zm13,16.52-7.44-9.45,2.75-2.17,7.42,9.46-2.74,2.19h0v0Zm12.93,16.59-7.37-9.48L808.9,82l7.39,9.49-2.76,2.15h0Zm12.85,16.64L819,100.75l2.77-2.14,7.36,9.51-2.77,2.14h0Zm12.85,16.68-7.34-9.54,2.77-2.14L842,124.8l-2.78,2.13h0Z"/></svg>