<svg xmlns="http://www.w3.org/2000/svg" viewBox="0 0 1280 127"><defs><style>.a{fill:#cde4f7;}</style></defs><title>dotted-right</title><path class="a" d="M617.73,3.62h12.13V0.12H617.73v3.5Zm21.19,0H651V0.12H638.92v3.5Zm21.1,0h12V0.12H660v3.5h0Zm21.07,0h12V0.12h-12v3.5Zm21,0h12V0.12h-12v3.5Zm21,0h12V0.12h-12v3.5Zm21,0h12V0.12h-12v3.5Zm21,0h12V0.12h-12v3.5Zm21,0h12V0.12h-12v3.5Zm21,0h12V0.12h-12v3.5Zm21,0h12V0.12h-12v3.5Zm21,0h12V0.12h-12v3.5Zm21,0h12V0.12h-12v3.5Zm21,0h12V0.12h-12v3.5Zm21,0h12V0.12h-12v3.5Zm21,0h12V0.12h-12v3.5Zm21,0h12V0.12h-12v3.5Zm21,0h12V0.12h-12v3.5Zm21,0h12V0.12h-12v3.5Zm21,0h12V0.12h-12v3.5Zm21,0h12V0.12h-12v3.5Zm21,0h12V0.12h-12v3.5Zm21,0h12V0.12h-12v3.5Zm21,0h12V0.12h-12v3.5Zm21,0h12V0.12h-12v3.5Zm21,0h12V0.12h-12v3.5Zm21,0h12V0.12h-12v3.5Zm21,0h12V0.12h-12v3.5Zm21,0h12V0.12h-12v3.5Zm21,0h12V0.12h-12v3.5Zm21,0h12V0.12h-12v3.5Zm21,0h12V0.12h-12v3.5Zm21,0h12V0.12h-12v3.5Zm21,0h12V0.12h-12v3.5Zm21,0h12V0.12h-12v3.5Zm21,0h12V0.12h-12v3.5Zm21,0h12V0.12h-12v3.5Zm21,0h12V0.12h-12v3.5Zm21,0h12V0.12h-12v3.5Zm21,0h12V0.12h-12v3.5Zm21,0h12V0.12h-12v3.5Zm21,0h12V0.12h-12v3.5Zm21,0h12V0.12h-12v3.5Zm21,0h12V0.12h-12v3.5Zm21,0h12V0.12h-12v3.5Zm21,0h12V0.12h-12v3.5Zm21,0h12V0.12h-12v3.5Zm21,0h12V0.12h-12v3.5Zm21,0h12V0.12h-12v3.5Zm21,0h12V0.12h-12v3.5Zm21,0h12V0.12h-12v3.5Zm21.06,0h12V0.12h-12v3.5Zm21.08,0h12.07V0.12h-12.07v3.5Zm21.14,0h12.26V0.12h-12.26v3.5Zm-1135.6.27-0.13-3.5c3.66-.14,7.49-0.21,12.05-0.25v3.5c-4.53,0-8.33.11-12,.24h0.08ZM576,5.56l-0.44-3.44c3.85-.51,7.79-0.91,12-1.22l0.25,3.49c-4.18.3-8.05,0.69-11.83,1.19h0ZM555.74,9.73l-1-3.36c3.75-1.09,7.73-2,11.82-2.82L567.22,7c-4,.77-7.86,1.69-11.51,2.75h0ZM536.6,17.35L535,14.26a100.82,100.82,0,0,1,11.13-5l1.24,3.27a97.37,97.37,0,0,0-10.77,4.82h0ZM519.67,29l-2.31-2.63a89.6,89.6,0,0,1,9.72-7.41L529,21.84A86.18,86.18,0,0,0,519.66,29h0ZM505.61,44.18L502.9,42c2.55-3.11,4.62-5.56,6.14-7.31q0.86-1,1.74-1.93l2.58,2.4q-0.85.91-1.68,1.86c-1.5,1.71-3.54,4.14-6.07,7.22h0v0ZM492.45,60.57l-2.74-2.17c2.64-3.34,5.17-6.5,7.51-9.41L500,51.18c-2.33,2.9-4.85,6.06-7.49,9.39h-0.06Zm-13,16.55L476.68,75l7.42-9.46,2.75,2.17-7.41,9.45h0ZM466.51,93.68l-2.76-2.15L471.14,82l2.76,2.15-7.38,9.49h0Zm-12.88,16.64-2.77-2.14,7.36-9.51,2.78,2.14-7.36,9.51h0ZM440.78,127L438,124.86l7.35-9.54,2.77,2.14L440.78,127h0Z"/></svg>