<svg xmlns="http://www.w3.org/2000/svg" viewBox="0 0 34 34"><defs><style>.a{fill:#bd071c;}.b{fill:#f9f8f8;}</style></defs><title>icon-pin</title><path class="a" d="M34,17A17,17,0,1,1,17,0,17,17,0,0,1,34,17"/><path class="b" d="M17,7a10,10,0,0,0-3.64,19.31,9.57,9.57,0,0,1,0-2.87l1.17-5a3.61,3.61,0,0,1-.3-1.48c0-1.39.81-2.43,1.81-2.43A1.26,1.26,0,0,1,17.34,16a20.16,20.16,0,0,1-.83,3.33A1.45,1.45,0,0,0,18,21.1c1.78,0,3.14-1.87,3.14-4.58A4,4,0,0,0,17,12.46a4.33,4.33,0,0,0-4.52,4.34,3.88,3.88,0,0,0,.74,2.28.3.3,0,0,1,.07.29L13,20.5c0,.18-.14.22-.33.13-1.25-.58-2-2.41-2-3.87,0-3.15,2.29-6.05,6.61-6.05a5.87,5.87,0,0,1,6.16,5.78c0,3.45-2.17,6.22-5.19,6.22a2.68,2.68,0,0,1-2.29-1.15l-.62,2.38A11.16,11.16,0,0,1,14,26.55,10,10,0,1,0,17,7"/></svg>